# xmcd
#
# Track frame offsets:
#	150
#	15585
#	27400
#	41178
#	58913
#	74099
#	90520
#	106014
#
# Disc length: 1621 seconds
#
# Revision: 0
# Processed by: cddbd v1.5.2PL0 Copyright (c) Steve Scherf et al.
# Submitted via: EasyCDDAExtractor 11.1.0.1
#
DISCID=69065308
DTITLE=Various Artist - En hilsen fra Nashville
DYEAR=1900
DGENRE=country
TTITLE0=Peter Vesth - Vinterhi
TTITLE1=Bjarne Lisby - Altid på vej
TTITLE2=Tonny Aabo - Tirsdag nat i Nashville
TTITLE3=Guiterkaj - Tina Kjaer
TTITLE4=Lotte Lisby - Mit paradis
TTITLE5=Kim Schwartz - Jeg har jo dig
TTITLE6=Peter Vesth - Det' fordi det er forår
TTITLE7=Guitarkaj - Kajii til Hawaii
EXTD=
EXTT0=
EXTT1=
EXTT2=
EXTT3=
EXTT4=
EXTT5=
EXTT6=
EXTT7=
PLAYORDER=
